<svg xmlns="http://www.w3.org/2000/svg" viewBox="0 0 2200 1466"><defs><style>.cls-1{fill:#2859e5;}.cls-2{fill:#4babf9;}.cls-3{fill:#e7e7e7;}</style></defs><title>Admin</title><g id="Objects"><path class="cls-1" d="M1543.418,665.214a441.913,441.913,0,0,1-123.19,306.717c-.443.466-.9.931-1.352,1.4a443.406,443.406,0,0,1-637.752,0c-.454-.466-.909-.931-1.352-1.4a441.913,441.913,0,0,1-123.19-306.717c0-244.9,198.523-443.419,443.418-443.419S1543.418,420.318,1543.418,665.214Z"/><circle class="cls-2" cx="1100" cy="519.563" r="170.514"/><ellipse class="cls-3" cx="1100" cy="1217.579" rx="195.95" ry="26.625"/><path class="cls-2" d="M1418.876,947.371v25.957a443.406,443.406,0,0,1-637.752,0V947.371c0-131.071,76.02-200.618,318.876-200.618C1351.844,746.753,1418.876,827.9,1418.876,947.371Z"/></g></svg>