<svg xmlns="http://www.w3.org/2000/svg" viewBox="0 0 2200 1466"><defs><style>.cls-1{fill:#8cc45b;}.cls-2{fill:#ace279;}.cls-3{fill:#e7e7e7;}</style></defs><title>Client</title><g id="Objects"><path class="cls-1" d="M1581.3,659.422a479.667,479.667,0,0,1-133.716,332.924c-.481.5-.974,1.01-1.467,1.515a481.289,481.289,0,0,1-692.242,0c-.493-.5-.986-1.01-1.468-1.515A479.671,479.671,0,0,1,618.7,659.422c0-265.819,215.485-481.3,481.3-481.3S1581.3,393.6,1581.3,659.422Z"/><circle class="cls-2" cx="1100" cy="501.326" r="185.082"/><ellipse class="cls-3" cx="1100" cy="1258.982" rx="212.693" ry="28.9"/><path class="cls-2" d="M1446.121,965.687v28.174a481.289,481.289,0,0,1-692.242,0V965.687c0-142.269,82.515-217.759,346.121-217.759C1373.362,747.928,1446.121,836.013,1446.121,965.687Z"/></g></svg>