<svg id="Layer_1" data-name="Layer 1" xmlns="http://www.w3.org/2000/svg" viewBox="0 0 2599 1733"><defs><style>.cls-1{fill:#3fc700;}.cls-2{fill:#fff;}</style></defs><title>DoneReport</title><circle class="cls-1" cx="1312.44" cy="863.386" r="256.586" transform="translate(-226.101 1180.915) rotate(-45)"/><path class="cls-1" d="M1609.456,785.334a307.108,307.108,0,0,0-594.03,0l-10.448-2.737a317.911,317.911,0,0,1,614.926.006Z"/><path class="cls-1" d="M1634.074,778.339a20.3,20.3,0,1,1-24.429-15.087A20.3,20.3,0,0,1,1634.074,778.339Z"/><path class="cls-1" d="M990.806,778.339a20.3,20.3,0,1,0,24.429-15.087A20.3,20.3,0,0,0,990.806,778.339Z"/><path class="cls-1" d="M1312.441,1181.27a318,318,0,0,1-306.527-233.524l10.414-2.86a307.146,307.146,0,0,0,592.223.006l10.414,2.86a318,318,0,0,1-306.524,233.518Z"/><path class="cls-1" d="M991.773,952.159a20.3,20.3,0,1,1,24.593,14.819A20.305,20.305,0,0,1,991.773,952.159Z"/><path class="cls-1" d="M1633.107,952.159a20.3,20.3,0,1,0-24.593,14.819A20.305,20.305,0,0,0,1633.107,952.159Z"/><polygon class="cls-2" points="1420.355 743.523 1265.738 898.14 1204.524 836.926 1161.97 879.481 1265.738 983.249 1462.91 786.077 1420.355 743.523"/></svg>