<svg xmlns="http://www.w3.org/2000/svg" viewBox="0 0 500 500"><defs><style>.cls-1{isolation:isolate;}.cls-2{fill:#e6e6e6;}.cls-3{fill:#e0e0e0;}.cls-15,.cls-4{fill:#fafafa;}.cls-22,.cls-5{fill:#f5f5f5;}.cls-6{fill:#f0f0f0;}.cls-18,.cls-21,.cls-23,.cls-7{fill:#fff;}.cls-8{fill:#e58a7b;}.cls-16,.cls-17,.cls-9{fill:#407bff;}.cls-10{opacity:0.2;}.cls-11{fill:#e8ecf1;}.cls-11,.cls-22{mix-blend-mode:multiply;}.cls-12{fill:#263238;}.cls-13{fill:#cf6f64;}.cls-14{fill:#df5753;}.cls-15{opacity:0.56;}.cls-16{opacity:0.07;}.cls-17{opacity:0.47;}.cls-18{opacity:0.1;}.cls-19{opacity:0.6;}.cls-20,.cls-21{opacity:0.4;}.cls-23{opacity:0.3;}</style></defs><title>login</title><g class="cls-1"><g id="Background_complete" data-name="Background complete"><rect class="cls-2" y="382.398" width="500" height="0.25"/><rect class="cls-2" x="91.704" y="397.528" width="33.122" height="0.25"/><rect class="cls-2" x="62.029" y="397.528" width="19.193" height="0.25"/><rect class="cls-2" x="191.362" y="401.208" width="19.192" height="0.25"/><rect class="cls-2" x="267.423" y="406.791" width="43.193" height="0.25"/><rect class="cls-2" x="252.187" y="406.791" width="6.333" height="0.25"/><rect class="cls-2" x="359.667" y="401.208" width="93.676" height="0.25"/><path class="cls-2" d="M237.014,337.8H43.915a5.715,5.715,0,0,1-5.708-5.708V60.66a5.714,5.714,0,0,1,5.708-5.707h193.1a5.714,5.714,0,0,1,5.707,5.707V332.092A5.715,5.715,0,0,1,237.014,337.8ZM43.915,55.2a5.463,5.463,0,0,0-5.458,5.457V332.092a5.464,5.464,0,0,0,5.458,5.458h193.1a5.464,5.464,0,0,0,5.457-5.458V60.66a5.464,5.464,0,0,0-5.457-5.457Z"/><path class="cls-2" d="M453.31,337.8h-193.1a5.714,5.714,0,0,1-5.707-5.708V60.66a5.713,5.713,0,0,1,5.707-5.707h193.1a5.714,5.714,0,0,1,5.709,5.707V332.092A5.715,5.715,0,0,1,453.31,337.8ZM260.212,55.2a5.463,5.463,0,0,0-5.457,5.457V332.092a5.463,5.463,0,0,0,5.457,5.458h193.1a5.464,5.464,0,0,0,5.459-5.458V60.66A5.464,5.464,0,0,0,453.31,55.2Z"/><rect class="cls-3" x="245.41" y="296.977" width="21.989" height="87.235"/><polygon class="cls-4" points="263.223 384.212 267.399 384.212 267.399 372.332 258.844 372.332 263.223 384.212"/><rect class="cls-3" x="149.055" y="296.977" width="21.989" height="87.235"/><rect class="cls-4" x="167.399" y="296.977" width="100.001" height="79.945"/><path class="cls-3" d="M263.773,300.907v21.151H171.025V300.907h92.748m.386-.386h-93.52v21.923h93.52V300.521Z"/><polygon class="cls-4" points="171.575 384.212 167.399 384.212 167.399 372.332 175.954 372.332 171.575 384.212"/><path class="cls-2" d="M215.187,311.482a2.212,2.212,0,1,0,2.212-2.211A2.212,2.212,0,0,0,215.187,311.482Z"/><path class="cls-3" d="M263.773,326.374v21.151H171.025V326.374h92.748m.386-.386h-93.52v21.923h93.52V325.988Z"/><path class="cls-2" d="M215.187,336.95a2.212,2.212,0,1,0,2.212-2.212A2.212,2.212,0,0,0,215.187,336.95Z"/><path class="cls-3" d="M263.773,351.841v21.151H171.025V351.841h92.748m.386-.386h-93.52v21.924h93.52V351.455Z"/><path class="cls-2" d="M215.187,362.417a2.212,2.212,0,1,0,2.212-2.212A2.212,2.212,0,0,0,215.187,362.417Z"/><rect class="cls-3" x="135.621" y="246.316" width="21.989" height="137.896"/><polygon class="cls-4" points="153.434 384.212 157.61 384.212 157.61 372.332 149.055 372.332 153.434 384.212"/><rect class="cls-3" x="53.438" y="246.316" width="21.989" height="137.896"/><rect class="cls-4" x="71.783" y="246.316" width="85.827" height="130.606"/><path class="cls-3" d="M153.915,250.014v29.57H75.478v-29.57h78.437m.455-.455H75.023V280.04H154.37V249.559Z"/><path class="cls-3" d="M153.915,283.178v78.437H116.554V283.178h37.361m.455-.455H116.1V362.07H154.37V282.723Z"/><path class="cls-3" d="M112.839,283.178v78.437H75.478V283.178h37.361m.456-.455H75.023V362.07H113.3V282.723Z"/><polygon class="cls-4" points="75.959 384.212 71.783 384.212 71.783 372.332 80.338 372.332 75.959 384.212"/><path class="cls-2" d="M112.485,264.8a2.212,2.212,0,1,0,2.211-2.211A2.211,2.211,0,0,0,112.485,264.8Z"/><path class="cls-2" d="M120.4,320.525a2.212,2.212,0,1,0,2.212-2.211A2.212,2.212,0,0,0,120.4,320.525Z"/><path class="cls-2" d="M104.566,320.525a2.212,2.212,0,1,0,2.212-2.211A2.212,2.212,0,0,0,104.566,320.525Z"/><path class="cls-3" d="M102.075,207.869H92.8s1.611,8.574,1.611,13.62-7.056,24.827,3.028,24.827,3.027-19.781,3.027-24.827S102.075,207.869,102.075,207.869Z"/><path class="cls-5" d="M66.8,228.148v6.027a12.176,12.176,0,0,0,12.141,12.141h6.027a12.176,12.176,0,0,0,12.14-12.141v-6.027Z"/><path class="cls-3" d="M195.667,284.265c0,6.991,7.831,12.712,17.4,12.712h8.639c9.572,0,17.4-5.721,17.4-12.712Z"/><path class="cls-3" d="M424.606,274.03c-5.24,4.277-12.472,12.109-19.1,23.127-4.413,7.338-7.074,15.027-8.242,25.185.025-11.5.061-23.854.1-35.514,1.331-3,4.371-9.916,6.552-15.38,7.277-18.231,9.987-22.714,16.532-38.439,8.729-20.974,17.674-45.861,15.113-43.873-5.219,4.053-25.22,41.505-27.382,46.865a150.059,150.059,0,0,0-10.794,44.853c.04-10.952.084-21.008.125-28.767.134-25.309.564-33.477.774-35.995.81-1.28,1.765-2.773,2.322-3.577,4.7-6.793,6.51-12.58,10.936-22.711,6.273-14.357,11.676-39.847,10.1-38.561-6.576,5.352-11.763,16.861-18.579,31.526s-4.866,23.1-6.218,35.623c-.285,2.458-.5,11.733-.658,24.588-1.768-13.695-5.084-22.72-11.135-30.921-7.441-10.088-14.64-16.9-19.923-20.46s9.121,21.22,16.009,32.035c6.135,9.631,11.785,18.13,14.971,26.5-.169,17.422-.247,39.483-.248,60.019-1.58-9.346-4.16-19.409-7.6-27.2-4.136-9.364-10.5-23.724-15.564-28.6-1.216-1.17,5.3,26.76,9.476,34.187s7.248,14.427,9.879,18.637c.614.982,2.649,4.77,3.812,6.948.012,25.07.139,47.192.357,54.722H397.3c-.073-1.943-.085-14.7-.062-31.575,2.608-9.165,8.572-19.623,13.5-29.164C416.106,297.7,429.847,269.752,424.606,274.03Z"/><polygon class="cls-6" points="412.44 384.212 381.097 384.212 378.731 353.488 414.806 353.488 412.44 384.212"/><polygon class="cls-5" points="417.142 357.068 376.395 357.068 375.228 346.702 418.309 346.702 417.142 357.068"/><rect class="cls-3" x="68.208" y="75.498" width="56.052" height="61.549"/><rect class="cls-5" x="72.433" y="75.498" width="57.898" height="61.549"/><rect class="cls-7" x="75.457" y="82.174" width="51.848" height="48.197" transform="translate(207.654 4.89) rotate(90)"/><rect class="cls-5" x="88.025" y="93.856" width="26.714" height="24.832" transform="translate(207.654 4.89) rotate(90)"/><rect class="cls-3" x="357.981" y="82.672" width="52.07" height="57.177"/><rect class="cls-5" x="361.906" y="82.672" width="53.785" height="57.177"/><rect class="cls-7" x="364.716" y="88.874" width="48.165" height="44.773" transform="translate(500.059 -277.537) rotate(90)"/><circle class="cls-5" cx="388.798" cy="111.261" r="13.968"/><rect class="cls-3" x="140.909" y="112.197" width="41.58" height="45.658"/><rect class="cls-5" x="144.044" y="112.197" width="42.95" height="45.658"/><rect class="cls-7" x="146.288" y="117.149" width="38.462" height="35.753" transform="translate(300.545 -30.493) rotate(90)"/><polygon class="cls-5" points="165.519 125.303 155.741 142.24 175.297 142.24 165.519 125.303"/></g><g id="Shadow"><ellipse class="cls-5" cx="250" cy="416.238" rx="193.889" ry="11.323"/></g><g id="Character_2" data-name="Character 2"><path class="cls-8" d="M349.246,163.432l-9.919-4.022s-13.09,23.873-16.839,25.077c-5.1,1.64-15.653,6.2-21.923,7.054-.845.988-2.239,4.1-2.106,5.239,8.412,2.805,26.892-.919,30.847-3.857C338.325,186.225,349.246,163.432,349.246,163.432Z"/><path class="cls-9" d="M352.3,158.015c1.845,6.839-8.174,20.577-8.174,20.577l-13.162-7.383s2.454-5.647,5.458-11.4C341.273,150.523,350.193,150.21,352.3,158.015Z"/><path class="cls-10" d="M352.3,158.015c1.845,6.839-8.174,20.577-8.174,20.577l-13.162-7.383s2.454-5.647,5.458-11.4C341.273,150.523,350.193,150.21,352.3,158.015Z"/><path class="cls-10" d="M336.212,174.148l5.169,2.9.9-15.866C339.285,163.492,337.157,170.449,336.212,174.148Z"/><path class="cls-9" d="M343.662,152.863S333.443,175.6,339.4,217.94h40.27c.64-6.182-1.476-36.338,6.194-65.465a102.658,102.658,0,0,0-13.381-1.7,148.038,148.038,0,0,0-17.119,0A78.108,78.108,0,0,0,343.662,152.863Z"/><path class="cls-10" d="M343.662,152.863S333.443,175.6,339.4,217.94h40.27c.64-6.182-1.476-36.338,6.194-65.465a102.658,102.658,0,0,0-13.381-1.7,148.038,148.038,0,0,0-17.119,0A78.108,78.108,0,0,0,343.662,152.863Z"/><path class="cls-11" d="M334.323,417.142c-.063,1.074,15.205,1.944,34.1,1.944s34.267-.87,34.33-1.944-15.2-1.945-34.1-1.945S334.386,416.068,334.323,417.142Z"/><rect class="cls-8" x="357.82" y="390.959" width="7.68" height="17.093" transform="translate(-119.457 156.751) rotate(-21.073)"/><polygon class="cls-8" points="393.051 409.454 385.522 409.454 382.76 392.019 390.289 392.019 393.051 409.454"/><path class="cls-12" d="M385.038,408.582H393.5a.611.611,0,0,1,.611.514l1.094,6.693a1.182,1.182,0,0,1-1.18,1.339c-2.95-.051-4.375-.224-8.095-.224-2.288,0-7.017.238-10.177.238-3.091,0-3.39-3.125-2.08-3.408,5.876-1.269,8.164-3.019,10.119-4.689A1.929,1.929,0,0,1,385.038,408.582Z"/><path class="cls-12" d="M359.972,405.946l8.022-2.332a.623.623,0,0,1,.742.312l2.972,6a1.149,1.149,0,0,1-.752,1.591c-2.905.793-4.858,1.289-8.5,2.347-2.513.73-5.069,1.92-7.552,2.711-1.719.548-5.756.571-7.847.571-3.091,0-3.78-3.26-2.456-3.408,3.353-.377,3.8-.2,5.654-1.13a25.853,25.853,0,0,0,8.076-5.581A3.77,3.77,0,0,1,359.972,405.946Z"/><path class="cls-8" d="M301.833,191.469l-8.285-3.486-3.411,9.179a34.146,34.146,0,0,0,10.242,0Z"/><polygon class="cls-8" points="287.39 187.758 287.172 193.864 290.137 197.162 293.548 187.983 287.39 187.758"/><rect class="cls-13" x="356.33" y="391.241" width="7.683" height="8.811" transform="translate(-118.305 156.232) rotate(-21.105)"/><polygon class="cls-13" points="390.291 392.023 382.759 392.023 384.187 401.01 391.719 401.01 390.291 392.023"/><path class="cls-10" d="M338.123,206.487c.144,1.809.319,3.658.535,5.559l29.944-9.721a21.454,21.454,0,0,0,11.52-8.354c.113-2.672.267-5.477.493-8.406.1-1.429.226-2.888.36-4.368.144-1.541.308-3.113.493-4.7Z"/><path class="cls-7" d="M347.9,173.688l-1.02-.122c.594-4.989,4.32-8.933,8.254-8.84l-.03,1.028C351.707,165.656,348.434,169.213,347.9,173.688Z"/><path class="cls-7" d="M353.228,182.922l-.169,0,.03-1.028c3.439.126,6.67-3.458,7.2-7.934l1.019.122C360.727,179,357.12,182.922,353.228,182.922Z"/><path class="cls-8" d="M371.918,131.5c-1.4,5.508-3.072,15.6.566,19.276,0,0-2.541,5.587-12.776,5.587-9.352,0-4.343-5.587-4.343-5.587,6.228-1.466,6.337-6.023,5.518-10.3Z"/><path class="cls-13" d="M367.419,135.158l-6.531,5.307a17.249,17.249,0,0,1,.35,3.039c1.909,1.9,5.74-2.915,6.133-5.372A8.23,8.23,0,0,0,367.419,135.158Z"/><path class="cls-13" d="M349.664,131.429a6.562,6.562,0,0,0,4.242,3.136c2.4.535,3.608-1.674,2.946-3.9-.6-2-2.563-4.69-4.976-4.229A3.334,3.334,0,0,0,349.664,131.429Z"/><path class="cls-12" d="M353.626,113.8c-3.74,1.714-5.058,16.572-.356,18.768S360.71,110.555,353.626,113.8Z"/><path class="cls-8" d="M373.059,123.208c-.9,7.459-1.042,11.847-5.033,15.675a9.613,9.613,0,0,1-16.353-5.1c-1.209-6.7.459-17.772,7.933-20.74A9.633,9.633,0,0,1,373.059,123.208Z"/><path class="cls-12" d="M360.774,117.665c5.532-1.415,9.6-2.379,8.15,2.239-1.936,6.152-4.257,12.112-1.143,12.389,1.894.169,10.3-3.4,9.228-7-.929-3.14,2.976-3.987,3.7-5.588,2.593-5.766-4.816-5.017-3.5-8.506,1.284-3.4-5.969-9.139-9.988-6.334-6.505,4.541-17.684,4.476-11.807-2.972,4.209-5.334-3.3-4.239-3.3-4.239s4.536,2.691-3.1,6.851C340.919,108.915,348.328,120.849,360.774,117.665Z"/><path class="cls-8" d="M375.946,131.429a7.68,7.68,0,0,1-4.611,3.136c-2.463.535-3.411-1.674-2.488-3.9.83-2,3.113-4.69,5.471-4.229C376.642,126.894,377.27,129.469,375.946,131.429Z"/><path class="cls-9" d="M339.4,217.94s-6.76,60.5-7.287,83.457c-.548,23.882,22.908,98.394,22.908,98.394l12.011-5.044s-13.985-68.073-12.042-91.527c2.117-25.57,10.881-85.28,10.881-85.28Z"/><path class="cls-10" d="M356.2,234.551c-5.385,11.181-1.757,33.285,1.161,46.387,1.11-9.249,2.425-19.289,3.679-28.578C360.916,238.076,359.806,227.05,356.2,234.551Z"/><path class="cls-9" d="M366.49,390.826c.056-.024,1.424,3.827,1.424,3.827l-13.844,5.814-2.181-4.055Z"/><path class="cls-9" d="M353.686,217.94s5.171,57.538,8.6,79.094c3.753,23.605,18.5,102.236,18.5,102.236h13.79s-8.262-76.725-9.823-100.1c-1.694-25.366-5.075-81.234-5.075-81.234Z"/><path class="cls-9" d="M394.78,395.676c.059,0,.461,3.854.461,3.854H380.084L379,395.106Z"/><path class="cls-10" d="M389.5,391.122a.128.128,0,0,1-.127-.114c-.075-.7-7.527-69.967-8.929-90.965-1.521-22.787-4.58-73.312-4.611-73.82a.129.129,0,0,1,.121-.136h.008a.129.129,0,0,1,.128.121c.03.507,3.089,51.032,4.611,73.817,1.4,20.994,8.851,90.259,8.927,90.955a.127.127,0,0,1-.114.141Z"/><path class="cls-12" d="M361.624,125.293c-.036.607-.386,1.1-.783,1.1s-.69-.492-.654-1.1.386-1.1.783-1.1S361.66,124.686,361.624,125.293Z"/><path class="cls-12" d="M354.76,125.293c-.036.607-.386,1.1-.783,1.1s-.69-.492-.655-1.1.387-1.1.784-1.1S354.8,124.686,354.76,125.293Z"/><path class="cls-14" d="M356.924,125.6a23.428,23.428,0,0,1-3.2,5.194,3.417,3.417,0,0,0,2.869.544Z"/><path class="cls-12" d="M357.1,133.881a.167.167,0,0,1-.168-.178.192.192,0,0,1,.189-.179,5.144,5.144,0,0,0,4.032-1.881.184.184,0,0,1,.25-.051.173.173,0,0,1,.037.246A5.451,5.451,0,0,1,357.1,133.881Z"/><path class="cls-12" d="M362.845,123.446a.354.354,0,0,1-.315-.027,2.816,2.816,0,0,0-2.547-.266.343.343,0,0,1-.466-.167.374.374,0,0,1,.195-.476,3.512,3.512,0,0,1,3.224.3.347.347,0,0,1,.091.49A.392.392,0,0,1,362.845,123.446Z"/><path class="cls-12" d="M352.106,121.451a.32.32,0,0,1-.136-.077.354.354,0,0,1,0-.5,3.719,3.719,0,0,1,3.082-1.24.332.332,0,0,1,.276.406.381.381,0,0,1-.421.3h0a2.975,2.975,0,0,0-2.432,1.008A.371.371,0,0,1,352.106,121.451Z"/><path class="cls-8" d="M389.73,162.317l-10.4-2.769s-10.2,25.107-13.8,26.747c-4.9,2.231-17.318,9.947-22.593,13.667-.293,1.244-.063,4.561.6,5.463,8.971-1.63,26.23-8.265,29.829-11.637C381.567,186.1,389.73,162.317,389.73,162.317Z"/><path class="cls-9" d="M382.471,409.9a2.191,2.191,0,0,1-1.427-.383,1.018,1.018,0,0,1-.313-.943.609.609,0,0,1,.335-.505c.849-.426,3.2,1.065,3.463,1.236a.173.173,0,0,1,.071.181.194.194,0,0,1-.143.144A9.1,9.1,0,0,1,382.471,409.9Zm-1.027-1.558a.522.522,0,0,0-.234.045.231.231,0,0,0-.124.209.69.69,0,0,0,.2.648c.391.346,1.372.393,2.665.135A6.781,6.781,0,0,0,381.444,408.339Z"/><path class="cls-9" d="M384.415,409.632a.177.177,0,0,1-.084-.021c-.755-.423-2.164-2.073-1.955-2.913a.625.625,0,0,1,.6-.467.931.931,0,0,1,.746.229c.833.715.885,2.888.887,2.98a.19.19,0,0,1-.091.163A.183.183,0,0,1,384.415,409.632Zm-1.34-3.052c-.027,0-.054,0-.082,0-.233.028-.26.135-.271.18-.123.5.763,1.743,1.5,2.331a4.064,4.064,0,0,0-.75-2.36A.594.594,0,0,0,383.075,406.58Z"/><path class="cls-9" d="M355.917,408.653a2.849,2.849,0,0,1-1.886-.012.929.929,0,0,1-.487-.764.6.6,0,0,1,.2-.53c.806-.717,4.068.054,4.437.144a.165.165,0,0,1,.127.156.194.194,0,0,1-.112.18A13.615,13.615,0,0,1,355.917,408.653Zm-1.626-1.188a.749.749,0,0,0-.316.143.225.225,0,0,0-.076.212.608.608,0,0,0,.317.506c.531.288,1.764.06,3.351-.605A9.685,9.685,0,0,0,354.291,407.465Z"/><path class="cls-9" d="M358.166,407.838a.19.19,0,0,1-.075,0c-.969-.179-3.039-1.329-3.058-2.19,0-.2.09-.477.564-.642a1.277,1.277,0,0,1,1.03.06c1.086.536,1.654,2.456,1.678,2.538a.187.187,0,0,1-.043.175A.19.19,0,0,1,358.166,407.838Zm-2.365-2.526c-.034.009-.069.02-.1.031-.31.109-.308.236-.307.278.012.516,1.45,1.466,2.464,1.786a3.861,3.861,0,0,0-1.4-2.017A.932.932,0,0,0,355.8,405.312Z"/><path class="cls-8" d="M343.778,199.373l-10.428,4.8-1.21,2.942L336,209.708s7.192-.783,9.241-5.4Z"/><path class="cls-12" d="M344.222,205.6a14.389,14.389,0,0,0-1.938-5.659l1.644-1.233a15.861,15.861,0,0,1,2.321,6.55Z"/><path class="cls-12" d="M346,200.791a2,2,0,1,1-2.438-.777A1.826,1.826,0,0,1,346,200.791Z"/><polygon class="cls-8" points="326.304 208.048 327.689 209.451 337.046 205.449 333.35 204.173 326.304 208.048"/><path class="cls-10" d="M366.49,390.826c.056-.024,1.424,3.827,1.424,3.827l-13.844,5.814-2.181-4.055Z"/><path class="cls-10" d="M394.78,395.676c.059,0,.461,3.854.461,3.854H380.084L379,395.106Z"/><path class="cls-9" d="M392.441,159.44c2.752,8.866-7.959,20.98-7.959,20.98l-14.848-6.06a152.309,152.309,0,0,1,6.073-15.073C380.232,149.477,389.664,150.49,392.441,159.44Z"/><path class="cls-10" d="M392.441,159.44c2.752,8.866-7.959,20.98-7.959,20.98l-14.848-6.06a152.309,152.309,0,0,1,6.073-15.073C380.232,149.477,389.664,150.49,392.441,159.44Z"/></g><g id="Screen"><rect class="cls-9" x="238.487" y="70.57" width="6.387" height="1.028"/><rect class="cls-9" x="319.139" y="119.423" width="17.176" height="1.027" transform="translate(193.165 441.935) rotate(-87.421)"/><polygon class="cls-9" points="325.613 75.194 207.614 75.194 196.629 320.913 314.628 320.913 325.613 75.194"/><polygon class="cls-15" points="322.09 78.566 204.091 78.566 193.107 324.285 311.106 324.285 322.09 78.566"/><polygon class="cls-16" points="318.567 81.938 200.569 81.938 189.584 327.657 307.583 327.657 318.567 81.938"/><polygon class="cls-7" points="305.136 189.106 204.419 189.106 203.578 207.912 304.295 207.912 305.136 189.106"/><polygon class="cls-9" points="259.815 175.39 205.032 175.39 204.656 183.804 259.438 183.804 259.815 175.39"/><polygon class="cls-7" points="302.868 239.849 202.15 239.849 201.309 258.655 302.027 258.655 302.868 239.849"/><polygon class="cls-17" points="284.398 284.036 216.669 284.036 215.662 306.575 283.39 306.575 284.398 284.036"/><path class="cls-7" d="M279.868,310.067H212.139a.124.124,0,0,1-.086-.038.117.117,0,0,1-.032-.087l1.008-22.539a.119.119,0,0,1,.118-.115h67.728a.12.12,0,0,1,.086.038.114.114,0,0,1,.033.087l-1.008,22.539A.119.119,0,0,1,279.868,310.067Zm-67.6-.239h67.49l1-22.3H213.26Z"/><polygon class="cls-9" points="247.978 226.134 202.763 226.134 202.387 234.547 247.601 234.547 247.978 226.134"/><path class="cls-7" d="M283.106,128.379a26.475,26.475,0,0,1-5.565,15.054A26.9,26.9,0,0,1,256.342,154a24.3,24.3,0,0,1-24.463-25.618,27.048,27.048,0,0,1,26.753-25.619A24.285,24.285,0,0,1,283.106,128.379Z"/><path class="cls-9" d="M285.515,108.123a7.037,7.037,0,0,1-1.478,4,7.148,7.148,0,0,1-5.633,2.807,6.457,6.457,0,0,1-6.5-6.807,7.188,7.188,0,0,1,7.109-6.807A6.452,6.452,0,0,1,285.515,108.123Z"/><path class="cls-12" d="M215.265,198.509a3.182,3.182,0,0,1-3.148,3.013,2.857,2.857,0,0,1-2.879-3.013,3.183,3.183,0,0,1,3.148-3.014A2.857,2.857,0,0,1,215.265,198.509Z"/><path class="cls-12" d="M228.752,198.509a3.181,3.181,0,0,1-3.148,3.013,2.856,2.856,0,0,1-2.878-3.013,3.182,3.182,0,0,1,3.148-3.014A2.856,2.856,0,0,1,228.752,198.509Z"/><path class="cls-12" d="M242.24,198.509a3.182,3.182,0,0,1-3.148,3.013,2.856,2.856,0,0,1-2.879-3.013,3.182,3.182,0,0,1,3.148-3.014A2.858,2.858,0,0,1,242.24,198.509Z"/><path class="cls-12" d="M213,249.252a3.182,3.182,0,0,1-3.148,3.014,2.856,2.856,0,0,1-2.879-3.014,3.182,3.182,0,0,1,3.148-3.013A2.857,2.857,0,0,1,213,249.252Z"/><path class="cls-12" d="M226.484,249.252a3.182,3.182,0,0,1-3.148,3.014,2.857,2.857,0,0,1-2.879-3.014,3.182,3.182,0,0,1,3.148-3.013A2.856,2.856,0,0,1,226.484,249.252Z"/><path class="cls-12" d="M239.971,249.252a3.182,3.182,0,0,1-3.148,3.014,2.857,2.857,0,0,1-2.879-3.014,3.183,3.183,0,0,1,3.149-3.013A2.856,2.856,0,0,1,239.971,249.252Z"/><path class="cls-12" d="M253.459,249.252a3.183,3.183,0,0,1-3.149,3.014,2.856,2.856,0,0,1-2.878-3.014,3.182,3.182,0,0,1,3.148-3.013A2.857,2.857,0,0,1,253.459,249.252Z"/><path class="cls-12" d="M266.946,249.252a3.182,3.182,0,0,1-3.148,3.014,2.857,2.857,0,0,1-2.879-3.014,3.182,3.182,0,0,1,3.148-3.013A2.857,2.857,0,0,1,266.946,249.252Z"/><ellipse class="cls-9" cx="257.875" cy="119.816" rx="10.596" ry="10.132" transform="translate(-10.275 214.427) rotate(-44.355)"/><path class="cls-9" d="M277.541,143.433A26.9,26.9,0,0,1,256.342,154,24.3,24.3,0,0,1,236.1,143.433c4.862-4.84,12.555-7.984,21.074-7.984S273.113,138.593,277.541,143.433Z"/><ellipse class="cls-18" cx="257.875" cy="119.816" rx="10.596" ry="10.132" transform="translate(-10.275 214.427) rotate(-44.355)"/><path class="cls-18" d="M277.541,143.433A26.9,26.9,0,0,1,256.342,154,24.3,24.3,0,0,1,236.1,143.433c4.862-4.84,12.555-7.984,21.074-7.984S273.113,138.593,277.541,143.433Z"/></g><g id="Character_1" data-name="Character 1"><path class="cls-8" d="M130.407,212.443c-.947,2.077-1.943,4.362-2.819,6.591-.882,2.25-1.762,4.5-2.529,6.786a85.763,85.763,0,0,0-3.574,13.8l-.228,1.473a2.246,2.246,0,0,0,.073.745,7.667,7.667,0,0,0,1.1,2.319,29.1,29.1,0,0,0,4.443,4.981,67.817,67.817,0,0,0,5.52,4.616c1.919,1.476,3.943,2.921,5.923,4.274l-1.863,3.51a70.939,70.939,0,0,1-13.481-7.689,32.217,32.217,0,0,1-6.04-5.678,14.2,14.2,0,0,1-2.391-4.273,9.567,9.567,0,0,1-.482-2.945c.006-.247.02-.594.037-.76l.049-.5.1-.993a77.821,77.821,0,0,1,3.265-15.338c.78-2.468,1.613-4.911,2.563-7.309.969-2.413,1.927-4.729,3.14-7.158Z"/><path class="cls-8" d="M136.914,257.432l7.066-3.585-1.826,7.767s-4.852,1.355-7.108-1Z"/><polygon class="cls-8" points="150.451 255.122 148.571 261.542 142.154 261.614 143.98 253.847 150.451 255.122"/><path class="cls-14" d="M160.432,175a19.947,19.947,0,0,0,1.585,3.954,1.621,1.621,0,0,1-1.585.508Z"/><ellipse class="cls-12" cx="160.223" cy="173.914" rx="0.749" ry="1.146"/><path class="cls-12" d="M160.04,172.8l1.52-.438S160.78,173.552,160.04,172.8Z"/><path class="cls-8" d="M140.9,182.336c.912,4.655,1.823,13.185-1.434,16.291,0,0,1.273,4.723,9.923,4.723,9.512,0,4.546-4.722,4.546-4.722-5.192-1.24-5.058-5.091-4.153-8.709Z"/><path class="cls-8" d="M138.373,171.742c.477,7.772.513,11.071,4.438,15.06,5.9,6,15.345,3.714,17.2-4.043,1.669-6.983.608-18.519-7-21.612A10.619,10.619,0,0,0,138.373,171.742Z"/><path class="cls-12" d="M139.139,162.948c-3.9,1.421-9.1.364-7.056,12.393,2.16,12.736-1.165,16.926-1.165,16.926s14.791,3.152,29.892-.188c0,0-4.61-8.063-3.317-13.945,1.65-7.5.343-10.276.343-10.276S144.619,160.95,139.139,162.948Z"/><path class="cls-8" d="M155.64,175.792a7.839,7.839,0,0,0,1.224,4.169c1.054,1.621,2.3.961,2.616-.722.282-1.514.073-4.182-1.276-5.216C156.876,173,155.659,174.032,155.64,175.792Z"/><path class="cls-12" d="M135.754,164.309c-1.125-3.145,4.219-7.982,15.516-5.971s11.794,11.409,11.794,11.409l-2.286-2.713.1,2.856-11.61,2.232Z"/><path class="cls-9" d="M136.712,199.156h0a1.76,1.76,0,0,1,1.45-2.024c3.518-.581,11.514-1.758,15.539-1.2,2.99.414,3.78,2.16,3.907,3.588a1.763,1.763,0,0,1-1.844,1.9l-17.389-.785A1.766,1.766,0,0,1,136.712,199.156Z"/><path class="cls-19" d="M136.712,199.156h0a1.76,1.76,0,0,1,1.45-2.024c3.518-.581,11.514-1.758,15.539-1.2,2.99.414,3.78,2.16,3.907,3.588a1.763,1.763,0,0,1-1.844,1.9l-17.389-.785A1.766,1.766,0,0,1,136.712,199.156Z"/><polygon class="cls-8" points="146.76 373.862 153.205 378.336 163.997 363.71 157.552 359.236 146.76 373.862"/><polygon class="cls-8" points="131.715 373.566 138.533 377.449 148.084 361.98 141.267 358.098 131.715 373.566"/><polygon class="cls-13" points="163.992 363.713 158.431 371.253 151.984 366.777 157.545 359.237 163.992 363.713"/><polygon class="cls-13" points="141.263 358.101 148.083 361.985 143.156 369.957 136.336 366.073 141.263 358.101"/><path class="cls-9" d="M152.2,247.988s25.18,31.735,20.456,62.082c-3.815,24.512-25.912,57.7-25.912,57.7l-10.391-5.164a339.423,339.423,0,0,0,18.7-45.441,33.589,33.589,0,0,0-4.028-29.1c-12.755-18.63-33.19-7.546-19.444-40.083Z"/><path class="cls-19" d="M152.2,247.988s25.18,31.735,20.456,62.082c-3.815,24.512-25.912,57.7-25.912,57.7l-10.391-5.164a339.423,339.423,0,0,0,18.7-45.441,33.589,33.589,0,0,0-4.028-29.1c-12.755-18.63-33.19-7.546-19.444-40.083Z"/><path class="cls-20" d="M164.549,268.38l-3.658-3.637c0,.287,7.09,44.053,9.084,56.354a74.993,74.993,0,0,0,2.682-11.027C174.969,295.211,170.108,280.013,164.549,268.38Z"/><path class="cls-9" d="M163.444,247.988s30.319,39.88,31.172,63.8c.714,20.039-33.026,58.745-33.026,58.745l-9.8-6.336s19.729-27.518,24.7-50.011c-1.894-22.265-42.542-66.193-42.542-66.193Z"/><path class="cls-19" d="M163.444,247.988s30.319,39.88,31.172,63.8c.714,20.039-33.026,58.745-33.026,58.745l-9.8-6.336s19.729-27.518,24.7-50.011c-1.894-22.265-42.542-66.193-42.542-66.193Z"/><path class="cls-9" d="M125.933,200.41c-3.248.766-6.35,12.553-6.35,12.553l12.662,8.453s4.22-9.316,2.747-13.4C133.458,203.769,130.033,199.443,125.933,200.41Z"/><path class="cls-10" d="M128.411,207.994l-.884,10.269,4.714,3.155a42.192,42.192,0,0,0,2.867-9.135Z"/><path class="cls-9" d="M167.193,200.637s3.738,1.317-3.749,47.351H131.581c.535-12.968.55-20.964-5.648-47.578a94.112,94.112,0,0,1,13.53-1.783,101.438,101.438,0,0,1,14.469,0C160.146,199.2,167.193,200.637,167.193,200.637Z"/><path class="cls-8" d="M170.429,207.948c.722,2,1.486,4.152,2.281,6.225q1.143,3.155,2.372,6.292l2.452,6.282.62,1.569.311.785.156.392c.027.071.022.065.012.057a2.2,2.2,0,0,0-.7-.624,2.788,2.788,0,0,0-1.306-.381,2.584,2.584,0,0,0-1.112.2c-.451.216-.458.308-.448.293a1.3,1.3,0,0,0,.224-.227,14.3,14.3,0,0,0,1.429-2.33c.473-.917.92-1.9,1.365-2.891.885-1.993,1.69-4.072,2.509-6.156s1.573-4.209,2.329-6.335l2.277-6.383,3.853.972c-.763,4.565-1.748,9.036-2.923,13.523-.574,2.248-1.238,4.478-2,6.728-.378,1.127-.8,2.251-1.287,3.4a20.883,20.883,0,0,1-1.9,3.617,8.883,8.883,0,0,1-.872,1.079,5.576,5.576,0,0,1-1.822,1.287,4.514,4.514,0,0,1-1.941.363,4.461,4.461,0,0,1-2.111-.636,5.289,5.289,0,0,1-1.818-1.889c-.153-.253-.282-.516-.372-.7l-.19-.388-.379-.776-.757-1.553c-.987-2.081-1.955-4.173-2.873-6.288s-1.793-4.252-2.651-6.4c-.822-2.181-1.634-4.294-2.356-6.614Z"/><path class="cls-9" d="M167.193,200.637c3.83.913,8.133,12.228,8.133,12.228l-11.382,9.7s-7.376-12.339-5.884-16.413C159.614,201.908,162.19,199.445,167.193,200.637Z"/><path class="cls-8" d="M186.976,201.189l3.994-3.341,2.779,4.329-2.047,3.615s-3.26,2.984-6.147,1.466h0A5.188,5.188,0,0,1,186.976,201.189Z"/><polygon class="cls-8" points="198.222 197.858 197.923 198.947 191.594 200.01 190.97 197.848 198.222 197.858"/><polygon class="cls-9" points="162.402 371.053 150.983 363.667 153.028 360.111 165.861 368 162.402 371.053"/><path class="cls-12" d="M142.983,376.926a6.847,6.847,0,0,1-2.827-.979.184.184,0,0,1-.094-.181.187.187,0,0,1,.128-.159c.308-.1,3.017-.927,3.785-.283a.633.633,0,0,1,.212.6,1.051,1.051,0,0,1-.564.866A1.413,1.413,0,0,1,142.983,376.926Zm-2.249-1.091c1.243.632,2.242.865,2.723.626a.7.7,0,0,0,.363-.584.262.262,0,0,0-.085-.268C143.332,375.27,141.83,375.534,140.734,375.835Z"/><path class="cls-12" d="M140.247,375.97a.185.185,0,0,1-.179-.236c.026-.092.65-2.264,1.677-2.758a.968.968,0,0,1,.824-.025.647.647,0,0,1,.46.669c-.07.9-1.9,2.141-2.738,2.345A.212.212,0,0,1,140.247,375.97Zm1.938-2.727a.646.646,0,0,0-.279.068c-.612.3-1.126,1.467-1.371,2.18.88-.371,2.081-1.352,2.124-1.9.007-.089-.013-.2-.234-.3A.609.609,0,0,0,142.185,373.243Z"/><path class="cls-12" d="M157.268,381.247c-1.126,0-2.7-1.447-3.555-2.336a.188.188,0,0,1-.033-.213.2.2,0,0,1,.189-.1c.4.052,3.874.521,4.366,1.5a.6.6,0,0,1-.023.585,1.031,1.031,0,0,1-.792.553A1.254,1.254,0,0,1,157.268,381.247Zm-2.9-2.2c1.264,1.228,2.369,1.908,3,1.824a.669.669,0,0,0,.515-.368.229.229,0,0,0,.013-.235C157.635,379.731,155.778,379.271,154.371,379.045Z"/><path class="cls-12" d="M154.481,379.014a3.781,3.781,0,0,1-.669-.05.186.186,0,0,1-.109-.3c.057-.069,1.41-1.7,2.688-1.813a1.351,1.351,0,0,1,1.029.324c.393.337.366.637.274.828C157.377,378.669,155.649,379.014,154.481,379.014Zm-.258-.375c1.117.062,2.9-.309,3.136-.8.02-.041.079-.165-.18-.386a.974.974,0,0,0-.754-.236A4.3,4.3,0,0,0,154.223,378.639Z"/><path class="cls-9" d="M140.521,374.918l-8.481-2.4a.623.623,0,0,0-.749.346l-2.863,6.437a1.261,1.261,0,0,0,.831,1.685c2.972.785,4.446,1.014,8.175,2.068,2.3.649,5.58,1.835,8.749,2.731,3.1.876,4.223-2.19,2.984-2.847-5.557-2.945-6-4.964-7.515-7.2A2.047,2.047,0,0,0,140.521,374.918Z"/><path class="cls-9" d="M153.944,377.743l-7.24-5.027a.62.62,0,0,0-.82.084l-4.8,5.155a1.26,1.26,0,0,0,.238,1.863c2.554,1.709,3.873,2.406,7.057,4.616,1.959,1.36,5.869,4.377,8.574,6.255,2.646,1.836,4.706-.7,3.748-1.721-4.3-4.593-5.244-7.471-5.953-10.081A2.051,2.051,0,0,0,153.944,377.743Z"/><polygon class="cls-9" points="148.075 368.436 135.018 361.947 136.37 358.414 150.306 365.245 148.075 368.436"/><path class="cls-9" d="M131.1,246.118,130,248.97c-.111.222.151.447.519.447H163.6c.287,0,.525-.14.543-.321l.287-2.852c.02-.2-.229-.365-.543-.365H131.623A.58.58,0,0,0,131.1,246.118Z"/><path class="cls-21" d="M131.1,246.118,130,248.97c-.111.222.151.447.519.447H163.6c.287,0,.525-.14.543-.321l.287-2.852c.02-.2-.229-.365-.543-.365H131.623A.58.58,0,0,0,131.1,246.118Z"/><path class="cls-9" d="M136.307,249.726h-.864c-.172,0-.3-.088-.291-.2l.405-3.7c.012-.109.163-.2.335-.2h.864c.172,0,.3.089.291.2l-.405,3.7C136.63,249.638,136.479,249.726,136.307,249.726Z"/><path class="cls-9" d="M156.714,249.726h-.864c-.172,0-.3-.088-.292-.2l.406-3.7c.012-.109.162-.2.334-.2h.864c.172,0,.3.089.292.2l-.406,3.7C157.037,249.638,156.886,249.726,156.714,249.726Z"/><ellipse class="cls-22" cx="135.546" cy="417.143" rx="26.791" ry="1.944"/><path class="cls-3" d="M151.873,414.4c-4.74-1.376-9.957-3.149-13.185-5.035-.09-.052-.185-.09-.276-.137V387.8h9.534a2.854,2.854,0,1,0,0-5.708h-9.534V284.267H132.7v97.824h-9.534a2.854,2.854,0,1,0,0,5.708H132.7v21.429c-.092.047-.186.085-.276.137-3.228,1.886-8.445,3.659-13.185,5.035a1.4,1.4,0,0,0,.392,2.742h31.847A1.4,1.4,0,0,0,151.873,414.4Z"/><rect class="cls-9" x="112.595" y="274.314" width="45.925" height="20.933" rx="5.18"/><path class="cls-9" d="M117.448,295.247v1.82c0,1.5,1.632,2.727,3.628,2.727h28.963c2,0,3.628-1.227,3.628-2.727v-1.82Z"/><path class="cls-23" d="M117.448,295.247v1.82c0,1.5,1.632,2.727,3.628,2.727h28.963c2,0,3.628-1.227,3.628-2.727v-1.82Z"/></g></g></svg>