<svg id="Layer_1" data-name="Layer 1" xmlns="http://www.w3.org/2000/svg" viewBox="0 0 2599 1733"><defs><style>.cls-1{fill:#ff270e;}.cls-2{fill:#fff;}</style></defs><title>PendingReports</title><circle class="cls-1" cx="1277.71" cy="855.005" r="256.586" transform="translate(-230.347 1153.903) rotate(-45)"/><path class="cls-1" d="M1574.726,776.952a307.108,307.108,0,0,0-594.03-.006l-10.448-2.736a317.911,317.911,0,0,1,614.926,0Z"/><path class="cls-1" d="M1599.345,769.957a20.3,20.3,0,1,1-24.43-15.086A20.305,20.305,0,0,1,1599.345,769.957Z"/><path class="cls-1" d="M956.076,769.957a20.3,20.3,0,1,0,24.429-15.086A20.305,20.305,0,0,0,956.076,769.957Z"/><path class="cls-1" d="M1277.711,1172.888A318,318,0,0,1,971.184,939.365L981.6,936.5a307.146,307.146,0,0,0,592.223.006l10.414,2.861a318,318,0,0,1-306.524,233.517Z"/><path class="cls-1" d="M957.044,943.778A20.3,20.3,0,1,1,981.636,958.6,20.3,20.3,0,0,1,957.044,943.778Z"/><path class="cls-1" d="M1598.377,943.778a20.3,20.3,0,1,0-24.593,14.818A20.3,20.3,0,0,0,1598.377,943.778Z"/><polygon class="cls-2" points="1395.028 780.242 1352.473 737.688 1277.711 812.45 1202.948 737.688 1160.394 780.242 1235.156 855.005 1160.394 929.768 1202.948 972.322 1277.711 897.56 1352.473 972.322 1395.028 929.768 1320.265 855.005 1395.028 780.242"/></svg>