<svg xmlns="http://www.w3.org/2000/svg" viewBox="0 0 2200 1466"><defs><style>.cls-1{fill:#d63c3c;}.cls-2{fill:#ff725f;}.cls-3{fill:#e7e7e7;}</style></defs><title>Police</title><g id="Objects"><path class="cls-1" d="M1588.779,658.279a487.119,487.119,0,0,1-135.792,338.094c-.489.513-.99,1.026-1.491,1.54-88.879,91.969-213.505,149.145-351.5,149.145s-262.617-57.176-351.5-149.145c-.5-.514-1-1.027-1.491-1.54A487.119,487.119,0,0,1,611.221,658.279C611.221,388.332,830.052,169.5,1100,169.5S1588.779,388.332,1588.779,658.279Z"/><circle class="cls-2" cx="1100" cy="497.728" r="187.957"/><ellipse class="cls-3" cx="1100" cy="1267.151" rx="215.996" ry="29.349"/><path class="cls-2" d="M1451.5,969.3v28.613c-88.879,91.969-213.505,149.145-351.5,149.145s-262.617-57.176-351.5-149.145V969.3c0-144.478,83.8-221.14,351.5-221.14C1377.608,748.16,1451.5,837.613,1451.5,969.3Z"/></g></svg>