<svg xmlns="http://www.w3.org/2000/svg" viewBox="0 0 1122 1122"><defs><style>.cls-1{fill:none;}.cls-2{fill:#616e7d;}.cls-3{fill:#aad4c8;}.cls-4{fill:#82bfab;}</style></defs><title>search</title><g id="Object"><path class="cls-1" d="M494.547,301.148c-103.8,0-187.971,84.142-187.971,187.968s84.172,187.968,187.971,187.968c103.823,0,187.977-84.148,187.977-187.968S598.37,301.148,494.547,301.148ZM405.509,558.576a12.7,12.7,0,0,1-9.961-20.611l131.3-165.16a12.7,12.7,0,0,1,19.893,15.8L415.459,553.776A12.647,12.647,0,0,1,405.509,558.576Zm196.3-114.9L470.5,608.841a12.7,12.7,0,1,1-19.893-15.808L581.92,427.866a12.7,12.7,0,1,1,19.894,15.808Z"/><path class="cls-2" d="M875.4,808.656l-2.833-2.845-68.606,68.6,1.671,1.655,18.192,18.166c11.656,11.681,36.464,5.779,55.425-13.151,18.943-18.967,24.838-43.772,13.181-55.425l-17-17Z"/><polygon class="cls-3" points="855.782 789.313 787.176 857.868 803.964 874.411 872.57 805.811 870.61 803.85 870.555 803.881 855.782 789.313"/><path class="cls-2" d="M490.891,221.769c-147.633,0-267.307,119.7-267.307,267.347S343.258,756.432,490.891,756.432a265.954,265.954,0,0,0,147.937-44.694l148.348,146.13,68.606-68.555L708.4,644.155a265.772,265.772,0,0,0,49.832-155.039C758.235,341.473,638.562,221.769,490.891,221.769Zm3.656,455.315c-103.8,0-187.971-84.148-187.971-187.968s84.172-187.968,187.971-187.968c103.823,0,187.977,84.142,187.977,187.968S598.37,677.084,494.547,677.084Z"/><path class="cls-4" d="M526.853,372.805l-131.3,165.16a12.713,12.713,0,0,0,19.911,15.811l131.287-165.17a12.7,12.7,0,0,0-19.893-15.8Z"/><path class="cls-4" d="M581.92,427.866,450.609,593.033A12.7,12.7,0,0,0,470.5,608.841L601.814,443.674a12.7,12.7,0,1,0-19.894-15.808Z"/></g></svg>